<svg width="32" height="32" viewBox="0 0 32 32" fill="none" xmlns="http://www.w3.org/2000/svg">
<rect x="3" y="5" width="7" height="7" fill="white"/>
<rect x="22" y="5" width="7" height="7" fill="white"/>
<rect x="3" y="12" width="26" height="17" fill="#C5B9F6"/>
<path d="M13 9H19V1H32V32H19V29H13V32H0V1H13V9ZM3 29H10V26H22V29H29V5H22V12H10V5H3V29Z" fill="#9F86EE"/>
<rect x="13" y="20" width="6" height="3" fill="black"/>
<rect x="10" y="17" width="3" height="3" fill="black"/>
<rect x="19" y="17" width="3" height="3" fill="black"/>
<path d="M3 5H7V11H3V5Z" fill="black"/>
<rect x="22" y="5" width="4" height="6" fill="black"/>
<rect x="22" y="9" width="7" height="3" fill="black"/>
<rect x="3" y="9" width="7" height="3" fill="black"/>
</svg>
